<svg version="1.1" xmlns="http://www.w3.org/2000/svg" width="1024" height="1024" xmlns:bx="https://boxy-svg.com">
  <defs>
    <bx:grid x="0" y="0" width="261.446" height="88.152"></bx:grid>
  </defs>
  <path d="M 0 0 C -0.099 -0.133 329.824 290.136 335 295 C 340.486 291.097 672.115 0.459 672 1 C 672.205 55.038 671.843 568.049 671.843 568.189 C 671.843 568.028 509.008 681.292 508 682 C 507.505 521.125 507.505 521.125 507 357 C 503.37 360.3 337.489 509.48 336 511 C 332.513 509.516 167.575 358.716 165 357 C 164.67 464.58 164.34 572.16 164 683 C 157.129 678.628 -0.455 568.427 0 569 C -0.455 568.642 -0.169 53.341 0 0 Z" fill="#14362E" transform="translate(176,167)"></path>
  <path d="M 0 0 C 6.746 4.497 223.501 198.563 224 199 C 231.897 192.255 446.28 2.04 449 0 C 449.33 137.94 449.33 420.038 449.336 419.944 C 449.338 419.92 396.943 457.217 397 457 C 396.505 296.125 396.505 296.125 396 132 C 392.37 135.3 226.489 284.48 225 286 C 221.513 284.516 56.575 133.716 54 132 C 53.67 239.58 53.34 347.16 53 458 C 46.129 453.628 -0.265 421.351 -0.265 421.538 C -0.265 421.465 0 142.46 0 0 Z" fill="#021814" transform="translate(287,392)"></path>
</svg>